<?xml version="1.0" encoding="UTF-8"?>
<svg id="Layer_1" xmlns="http://www.w3.org/2000/svg" viewBox="0 0 72 72">
  <defs>
    <style>
      .cls-1 {
        fill: #f2f2f2;
      }

      .cls-1, .cls-2 {
        stroke-width: .5px;
      }

      .cls-1, .cls-2, .cls-3, .cls-4, .cls-5, .cls-6 {
        stroke-miterlimit: 10;
      }

      .cls-1, .cls-2, .cls-3, .cls-5, .cls-6 {
        stroke: #3f3f46;
      }

      .cls-2, .cls-5 {
        fill: #e6e6e6;
      }

      .cls-4 {
        fill: none;
        stroke: #fff;
        stroke-width: .75px;
      }

      .cls-6 {
        fill: #fff;
        stroke-width: .25px;
      }
    </style>
  </defs>
  <path class="cls-4" d="M36,70.38C17.05,70.38,1.62,54.95,1.62,36S17.05,1.62,36,1.62s34.38,15.42,34.38,34.38-15.42,34.38-34.38,34.38Z"/>
  <polyline class="cls-6" points="42 28 45.41 28 60 37 12 37 26.59 28 30 28"/>
  <rect class="cls-6" x="11.5" y="38" width="49" height="18"/>
  <polygon class="cls-3" points="43 33 28 33 30 32 41 32 43 33"/>
  <path class="cls-5" d="M37.25,16.38c0,.57.59,1.09,1.52,1.33l3.23,1.29v11h-12V12h12v3.46l-1.28-.33c-.34-.09-.69-.13-1.03-.13-1.28,0-2.44.58-2.44,1.38Z"/>
  <path class="cls-1" d="M48,21.34v2.58c0,1.02-1,1.75-1.97,1.42l-4.03-1.34v-5l-3.23-1.29c-.93-.24-1.52-.76-1.52-1.33,0-.8,1.16-1.38,2.44-1.38.34,0,.69.04,1.03.13l1.28.33,1.75.45,2.25,1.09c2,1,2,1.76,2,4.34Z"/>
  <path class="cls-2" d="M50.43,17.22l4.1-6.22,3.47,4-1.39,3-5.9,6.64c-.87.18-1.62-.89-1.51-2.14l-.22-2.5c-.24-1.21.63-2.34,1.45-2.78Z"/>
</svg>