<?xml version="1.0" encoding="UTF-8"?>
<svg id="Layer_1" xmlns="http://www.w3.org/2000/svg" viewBox="0 0 72 72">
  <defs>
    <style>
      .cls-1 {
        fill: gray;
      }

      .cls-2 {
        fill: none;
        stroke: gray;
        stroke-miterlimit: 10;
      }
    </style>
  </defs>
  <path class="cls-2" d="M36,70.38C17.05,70.38,1.62,54.95,1.62,36S17.05,1.62,36,1.62s34.38,15.42,34.38,34.38-15.42,34.38-34.38,34.38ZM36,3.09C17.85,3.09,3.09,17.85,3.09,36s14.76,32.91,32.91,32.91,32.91-14.76,32.91-32.91S54.15,3.09,36,3.09Z"/>
  <path class="cls-1" d="M43.07,15.03c0,3.8-3.08,6.88-6.89,6.88h-.18c-3.72-.1-6.71-3.14-6.71-6.88s2.99-6.79,6.71-6.88c.06,0,.12,0,.18,0,3.81,0,6.89,3.08,6.89,6.89Z"/>
  <path class="cls-1" d="M64.52,35.27v8.04H7.48v-8.04h15.36v-6.68c0-2.5,2.02-4.52,4.52-4.52h17.65c2.5,0,4.52,2.02,4.52,4.52v6.68h14.99Z"/>
  <rect class="cls-1" x="15.52" y="46.24" width="40.96" height="10.24"/>
</svg>