<?xml version="1.0" encoding="UTF-8"?>
<svg id="Layer_1" xmlns="http://www.w3.org/2000/svg" viewBox="0 0 72 72">
  <defs>
    <style>
      .cls-1 {
        fill: none;
        stroke: white;
        stroke-miterlimit: 10;
        stroke-width: .25px;
      }
    </style>
  </defs>
  <g>
    <path class="cls-1" d="M36,70.38C17.05,70.38,1.62,54.95,1.62,36S17.05,1.62,36,1.62s34.38,15.42,34.38,34.38-15.42,34.38-34.38,34.38Z"/>
    <polyline class="cls-1" points="42 28 45.41 28 60 37 12 37 26.59 28 30 28"/>
    <rect class="cls-1" x="11.5" y="38" width="49" height="18"/>
    <polygon points="43 33 28 33 30 32 41 32 43 33"/>
    <path class="cls-1" d="M37.25,16.38c0,.57.59,1.09,1.52,1.33l3.23,1.29v11h-12V12h12v3.46l-1.28-.33c-.34-.09-.69-.13-1.03-.13-1.28,0-2.44.58-2.44,1.38Z"/>
  </g>
  <path class="cls-1" d="M48,21.34v2.58c0,1.02-1,1.75-1.97,1.42l-4.03-1.34v-5l-3.23-1.29c-.93-.24-1.52-.76-1.52-1.33,0-.8,1.16-1.38,2.44-1.38.34,0,.69.04,1.03.13l1.28.33,1.75.45,2.25,1.09c2,1,2,1.76,2,4.34Z"/>
  <path class="cls-1" d="M51.09,17.22l5.91-6.22,5,4-2,3-8.5,6.64c-1.26.18-2.34-.89-2.18-2.14l-.32-2.5c-.35-1.21.91-2.34,2.09-2.78Z"/>
</svg>